<?xml version="1.0" encoding="UTF-8"?>
<svg id="Warstwa_1" data-name="Warstwa 1" xmlns="http://www.w3.org/2000/svg" viewBox="0 0 535 534.75">
  <defs>
    <style>
      .cls-1 {
        fill: #18077b;
      }

      .cls-2 {
        fill: #de2109;
      }

      .cls-3 {
        fill: #eb3d00;
      }

      .cls-4 {
        fill: #fff;
      }

      .cls-5 {
        fill: #f7f817;
      }

      .cls-6, .cls-7 {
        fill: none;
        stroke: #000;
        stroke-miterlimit: 10;
      }

      .cls-7 {
        stroke-width: 2px;
      }

      .cls-8 {
        fill: #edff00;
      }
    </style>
  </defs>
  <g>
    <g>
      <polygon class="cls-3" points="534.5 178.58 534.5 357.91 298.17 299.38 359.17 534.25 268.37 534.25 268.37 1.58 356.5 1.58 298.17 239.58 534.5 178.58"/>
      <polygon class="cls-1" points="268.37 1.58 268.37 534.25 178.84 534.25 238.17 299.38 .5 359.91 .5 179.25 238.17 239.58 177.17 1.58 268.37 1.58"/>
    </g>
    <g>
      <polygon class="cls-6" points="268.37 534.25 178.84 534.25 238.17 299.38 .5 359.91 .5 179.25 238.17 239.58 177.17 1.58 268.37 1.58 356.5 1.58 298.17 239.58 534.5 178.58 534.5 357.91 298.17 299.38 359.17 534.25 268.37 534.25"/>
      <polyline class="cls-6" points="268.37 534.25 268.37 1.58 268.37 .25"/>
    </g>
  </g>
  <g>
    <g>
      <polygon class="cls-5" points="29.92 243.71 39.59 243.71 46.92 277.71 55.92 245.04 68.8 245.18 77.89 278.3 84.26 245.04 94.59 245.09 83.26 295.38 72.26 295.38 62.25 258.04 52.59 295.38 41.26 295.38 29.92 243.71"/>
      <path class="cls-5" d="M100.25,244.84h10v36s.5,7,10.25,6.38,9.5-6,9.5-6v-36.38h10.5l-.81,40.88s-1.69,12.12-19.31,10.88-19.56-10.5-19.56-10.5l-.56-41.25Z"/>
      <polygon class="cls-5" points="151.5 244.84 161.25 244.84 161.88 286.34 186.63 286.34 186.63 295.38 151.5 295.38 151.5 244.84"/>
    </g>
    <g>
      <path class="cls-8" d="M365.13,245.21v50.5h10.33v-15.17l8-8.63,13.83,23.8s13.83,0,13.33,0-19.83-29.67-19.83-29.67l18-20.83h-13.17l-20,22.12-.38-22.12h-10.12Z"/>
      <polygon class="cls-8" points="429.5 245.21 411.25 295.71 421.63 295.71 425.63 284.71 445.25 284.46 449.88 295.71 461.38 295.71 441.25 245.21 429.5 245.21"/>
      <polygon class="cls-3" points="435.13 257.96 442.01 275.71 428.25 275.71 435.13 257.96"/>
      <path class="cls-8" d="M466.25,245.21s-.5,49.75,0,49.75h9.88v-31.12l19.5,31.12h11v-50.25h-9.62l.25,33-21.12-32.5h-9.88Z"/>
    </g>
    <g>
      <g>
        <path class="cls-4" d="M266.65,295.3c.57-.03,1.15-.07,1.77-.1.96-.05,1.95-.11,2.99-.16l.03.37c-1.75,13.66,7.64,23.66,7.64,23.66,1.77,12.3-10.66,20.08-10.66,20.08,0,0-11.3-3.68-10.43-19.9v-.18s7.48-8.8,8.7-23.13l-.03-.65Z"/>
        <path class="cls-2" d="M228.65,294.86s14.19-8.93,31.23-7.58c0,0,16.36-.54,26.1-2.69,0,0,15.9-2.74,22.71-11.1l6.57,5.96c-7.09,13.99-23.92,14.48-23.92,14.48-5.02.26-9.74.54-14.02.76-1.2.08-2.37.15-3.49.21-.83.05-1.64.1-2.42.15-1.04.05-2.03.12-2.99.16-.62.03-1.2.07-1.77.1-1.4.08-2.68.16-3.83.23-1.62.1-2.99.18-4.07.24-1.88.11-2.92.18-2.92.18-6.36-1.22-18.47,4.17-18.47,4.17-1.82-4.5-8.31-4.17-8.31-4.17l-.26-.7-.13-.39Z"/>
        <path class="cls-4" d="M285.98,284.59c-9.74,2.16-26.1,2.69-26.1,2.69-17.04-1.35-31.23,7.58-31.23,7.58l-3.47-9.54c14.61-10.13,34.7-6.69,34.7-6.69.42.05.84.1,1.27.13,2.55.26,4.98.39,7.27.41,2.26,0,4.38-.08,6.38-.28,19.05-1.71,27.48-11.21,27.48-11.21l6.41,5.81c-6.8,8.36-22.71,11.1-22.71,11.1Z"/>
        <path class="cls-4" d="M268.42,279.17c-2.29-.02-4.72-.15-7.27-.41,0,0-23.42-32.85-37.16-21.08,0,0-8.33,4.11-3.46,15.89,0,0-31.24-5.68-12.58-31.86,0,0,12.98-12.58,26.37-9.33,0,0,9.14,0,17.04,6.09,0,0,15.95,17.66,17.01,36.44-.02.44,0,.87.03,1.28.02.21.02.42.02.63v2.36Z"/>
        <path class="cls-4" d="M280.91,245.8c8.39-13.79,29.68-14.91,29.68-14.91,17.45-1.75,25.16,15.42,25.16,15.42,4.59,29.36-16.77,26.78-16.77,26.78-.28-22.17-19.88-18.96-19.88-18.96-6.39.62-23.78,24.03-24.31,24.77-2,.19-4.12.28-6.38.28v-5.33c.75-8.31,8.02-21.03,12.45-28.08l.05.03Z"/>
        <path class="cls-4" d="M310.06,293.92s8.37,17.3-7.04,28.8c0,0-11.21,5.13-23.94-3.65,0,0-9.4-10-7.64-23.66l-.03-.37c.78-.05,1.59-.1,2.42-.15l.02.23s4.03,18.94,18.1,19.09c0,0,15.95,3.91,18.13-20.29Z"/>
        <path class="cls-4" d="M308.36,293.58l1.7.34c-2.17,24.2-18.13,20.29-18.13,20.29-14.07-.14-18.1-19.09-18.1-19.09l-.02-.23c1.12-.06,2.29-.13,3.49-.21l.02.18s11.41,20.95,27.23,4.19c0,0,2.22-3.26,3.8-5.47Z"/>
        <path class="cls-4" d="M284.22,240.62s-1.4,2.01-3.36,5.14c-4.43,7.04-11.7,19.77-12.45,28.08v-87.1s15.4,12.24,15.81,53.88Z"/>
        <path class="cls-4" d="M268.42,186.74v87.1c-.03.36-.05.72-.05,1.06-1.05-18.78-17.01-36.44-17.01-36.44-.81-30.84,17.06-51.72,17.06-51.72Z"/>
        <path class="cls-4" d="M266.65,295.3l.03.65c-1.22,14.33-8.7,23.13-8.7,23.13v.18h-.05c-14.59,10.94-28.21.63-28.21.63-17.85-9.74-2.97-23.22-2.97-23.22.05.06.1.13.15.18.34,19.86,17.29,17.49,17.29,17.49,9.48,1.09,18.65-18.39,18.65-18.39l-.02-.42c1.15-.07,2.44-.14,3.83-.23Z"/>
        <path class="cls-4" d="M262.81,295.53l.02.42s-9.17,19.47-18.65,18.39c0,0-16.94,2.37-17.29-17.49,16.72,21.88,31.86-.89,31.86-.89l-.02-.18c1.09-.06,2.45-.15,4.07-.24Z"/>
      </g>
      <g>
        <path class="cls-7" d="M268.42,279.88v-93.14s-17.87,20.89-17.06,51.72c0,0,15.95,17.66,17.01,36.44.02.42.03.84.03,1.28.02.21.02.42.02.63"/>
        <path class="cls-7" d="M261.14,278.76s-23.42-32.85-37.16-21.08c0,0-8.33,4.11-3.46,15.89,0,0-31.24-5.68-12.58-31.86,0,0,12.98-12.58,26.37-9.33,0,0,9.14,0,17.04,6.09"/>
        <path class="cls-7" d="M268.42,186.74s15.4,12.24,15.81,53.88c0,0-1.4,2.01-3.36,5.14-4.43,7.04-11.7,19.77-12.45,28.08-.03.36-.05.72-.05,1.06-.02.44,0,.87.03,1.28,0,.08,0,.15.02.21"/>
        <path class="cls-7" d="M274.78,278.91l.02-.02c.53-.73,17.92-24.15,24.31-24.77,0,0,19.6-3.21,19.88,18.96,0,0,21.36,2.58,16.77-26.78,0,0-7.71-17.17-25.16-15.42,0,0-21.29,1.12-29.68,14.91-.26.44-.5.89-.75,1.36"/>
        <path class="cls-7" d="M268.42,339.15s12.43-7.78,10.66-20.08c0,0-9.4-10-7.64-23.66"/>
        <path class="cls-7" d="M273.83,295.12s4.03,18.94,18.1,19.09c0,0,15.95,3.91,18.13-20.29,0,0,8.37,17.3-7.04,28.8,0,0-11.21,5.13-23.94-3.65"/>
        <path class="cls-7" d="M277.33,294.86s11.41,20.95,27.23,4.19c0,0,2.22-3.26,3.8-5.47.52-.73.97-1.35,1.25-1.69"/>
        <path class="cls-7" d="M268.42,339.15s-11.3-3.68-10.43-19.9v-.18s7.48-8.8,8.7-23.13"/>
        <path class="cls-7" d="M226.88,295.95c0,.31,0,.6.02.89.34,19.86,17.29,17.49,17.29,17.49,9.48,1.09,18.65-18.39,18.65-18.39"/>
        <path class="cls-7" d="M258.76,295.95s-15.14,22.77-31.86.89c-.05-.05-.1-.11-.15-.18"/>
        <path class="cls-7" d="M226.75,296.66s-14.88,13.48,2.97,23.22c0,0,13.62,10.31,28.21-.63"/>
        <path class="cls-7" d="M228.65,294.86s14.19-8.93,31.23-7.58c0,0,16.36-.54,26.1-2.69,0,0,15.9-2.74,22.71-11.1v-.02"/>
        <path class="cls-7" d="M268.42,295.2c.96-.05,1.95-.11,2.99-.16.78-.05,1.59-.1,2.42-.15,1.12-.06,2.29-.13,3.49-.21,4.28-.23,9.01-.5,14.02-.76,0,0,16.83-.49,23.92-14.48l-6.57-5.96-6.41-5.81s-8.42,9.51-27.48,11.21c-2,.19-4.12.28-6.38.28-2.29-.02-4.72-.15-7.27-.41-.42-.03-.84-.08-1.27-.13,0,0-20.09-3.44-34.7,6.69l3.47,9.54.13.39.26.7s6.49-.33,8.31,4.17c0,0,12.11-5.39,18.47-4.17,0,0,1.04-.07,2.92-.18,1.09-.06,2.45-.15,4.07-.24,1.15-.07,2.44-.14,3.83-.23.57-.03,1.15-.07,1.77-.1"/>
      </g>
    </g>
    <g>
      <polygon class="cls-8" points="269.34 30.46 242.34 70.96 242.34 81.96 269.34 81.96 269.34 93.96 280.34 93.96 280.34 81.21 288.09 81.46 288.09 71.21 280.59 71.21 279.84 30.46 269.34 30.46"/>
      <polygon class="cls-1" points="267.84 50.21 267.84 70.71 253.59 70.71 267.84 50.21"/>
    </g>
    <polygon class="cls-8" points="209.3 471.98 209.3 517.64 241.13 517.64 241.13 509.31 218.3 509.14 218.13 471.98 209.3 471.98"/>
    <path class="cls-8" d="M247.96,471.98v44.83s23.5-.33,24,0,13-2.33,14.5-15.5v-12.5s-2.17-16.17-13.5-16.83h-25Z"/>
    <polygon class="cls-8" points="294.63 471.98 303.63 471.98 303.63 489.14 321.96 489.14 321.96 471.98 331.63 471.98 331.63 516.84 322.3 516.84 321.96 497.14 303.63 497.14 303.8 516.84 294.63 516.84 294.63 471.98"/>
    <path class="cls-3" d="M277.46,490.14s.34.84,0,9.34c-.33,8.5-6.16,9.83-6.16,9.83h-13.84v-29.17s9.5-.33,13.84,0c4.33.34,6.16,10,6.16,10Z"/>
    <line class="cls-6" x1="268.37" y1="480.06" x2="268.37" y2="509.31"/>
    <polygon class="cls-1" points="257.46 480.14 257.46 509.31 267.88 509.31 267.88 479.99 257.46 480.14"/>
  </g>
</svg>