<?xml version="1.0" encoding="UTF-8"?>
<svg id="Warstwa_2" data-name="Warstwa 2" xmlns="http://www.w3.org/2000/svg" viewBox="0 0 448.22 572.11">
  <defs>
    <style>
      .cls-1 {
        fill-rule: evenodd;
      }

      .cls-1, .cls-2 {
        fill: #fff;
      }

      .cls-3 {
        fill: #1d1e1b;
      }

      .cls-4 {
        fill: none;
        stroke: #fff;
        stroke-miterlimit: 10;
        stroke-width: 1.5px;
      }

      .cls-5 {
        fill: #e30b17;
      }
    </style>
  </defs>
  <g id="Layer_1" data-name="Layer 1">
    <g>
      <path class="cls-1" d="M224.14,3.56c41.29,48.63,58.97,77.5,63.14,134.04,1.4,19.04-4.22,51.13-11.46,84.28-26.56,31.61-43.52,79.61-43.52,133.38,0,1.49.02,2.98.05,4.47v.16c0,22.16,3.5,43.31,9.62,62.65,5.56,17.58,11.78,32.46,18.85,44.66-6.41,49.29-10.24,66.55-36.68,101.37-26.44-34.82-30.27-52.08-36.68-101.37,7.07-12.21,13.28-27.08,18.85-44.66,6.12-19.35,9.63-40.5,9.63-62.65v-.16c.03-1.49.04-2.97.04-4.47,0-53.76-16.95-101.77-43.52-133.38-7.24-33.15-12.86-65.24-11.46-84.28,4.16-56.53,21.84-85.41,63.14-134.04"/>
      <path class="cls-3" d="M235.9,359.73v.06M266.45,69.18c-9.5-19.14-23.25-37.5-42.3-60.12-19.06,22.62-32.81,40.98-42.3,60.12-9.89,19.93-15.24,40.88-17.28,68.66-.68,9.25.36,21.78,2.46,36.09,2.08,14.2,5.21,30.13,8.75,46.36,13.57,16.35,24.63,36.86,32.23,60.16,7.4,22.7,11.55,48.06,11.55,74.8l-.02,2.27c0,.8-.02,1.55-.03,2.26v.11h.02c0,11.04-.86,21.84-2.46,32.3-1.67,10.89-4.16,21.4-7.33,31.43-2.79,8.81-5.77,17.03-8.98,24.65-3.02,7.18-6.21,13.73-9.58,19.67,3.1,23.75,5.63,39.92,10.52,54.24,4.56,13.37,11.24,25.26,22.48,40.49,11.24-15.22,17.92-27.12,22.48-40.49,4.89-14.32,7.42-30.48,10.52-54.24-3.37-5.94-6.56-12.49-9.58-19.67-3.21-7.62-6.2-15.84-8.99-24.65-3.17-10.03-5.65-20.54-7.33-31.43-1.61-10.47-2.46-21.27-2.46-32.3h.02v-.12c-.02-.71-.03-1.46-.03-2.25l-.02-2.27c0-26.74,4.14-52.1,11.55-74.8,7.6-23.3,18.66-43.81,32.23-60.16,3.54-16.23,6.66-32.17,8.75-46.36,2.1-14.31,3.14-26.84,2.46-36.09-2.04-27.78-7.39-48.73-17.28-68.66M226.89,1.3c20.8,24.49,35.67,44.06,45.93,64.73,10.32,20.79,15.89,42.55,18.01,71.31.72,9.79-.35,22.84-2.52,37.62-2.15,14.65-5.38,31.03-9.01,47.66-.15.69-.49,1.29-.96,1.76-13.14,15.71-23.89,35.59-31.29,58.27-7.17,21.99-11.18,46.6-11.18,72.6v2.21c0,.69.02,1.42.03,2.19v.23h.01c0,10.69.83,21.14,2.38,31.24,1.61,10.5,4.01,20.65,7.07,30.34,2.77,8.77,5.68,16.78,8.73,24.04,3.07,7.28,6.32,13.92,9.8,19.91.44.75.56,1.6.43,2.39-3.23,24.8-5.82,41.58-10.96,56.64-5.19,15.21-12.92,28.52-26.39,46.26-1.18,1.56-3.41,1.87-4.97.68-.29-.22-.53-.47-.73-.74-13.45-17.72-21.16-31.01-26.35-46.2-5.16-15.1-7.74-31.91-10.98-56.79-.1-.81.07-1.59.45-2.24h0c3.47-6,6.73-12.63,9.8-19.91,3.05-7.26,5.96-15.27,8.73-24.04,3.07-9.69,5.46-19.84,7.08-30.34,1.55-10.11,2.38-20.55,2.38-31.24h.01v-.23s0,0,0,0c.02-.77.03-1.5.03-2.19v-2.21c0-26-4.02-50.61-11.19-72.6-7.44-22.79-18.25-42.75-31.48-58.49-.39-.46-.63-.99-.75-1.53h-.01c-3.63-16.63-6.86-33.01-9.01-47.66-2.17-14.78-3.24-27.82-2.52-37.62,2.12-28.75,7.69-50.51,18.01-71.31,10.26-20.69,25.15-40.26,45.96-64.78,1.27-1.5,3.51-1.69,5.01-.42.17.14.32.3.45.46"/>
      <path class="cls-3" d="M224.14,528.49h-.1c-1.59-21.58-2.51-46.8-2.47-77.38V142.52c-.05-61.26,2.21-93.06,2.43-98.29h.29c.22,5.23,2.48,37.03,2.43,98.29v308.6c.04,30.58-.89,55.8-2.47,77.38h-.1Z"/>
      <path class="cls-1" d="M351.2,183.19c135.21,0,111.52,159.53,6.56,143.77,23.48-30.26-3.98-63.27-46.29-50.72-33.24,9.87-49.09,54.03-49.09,89.09,0,21.72,4.85,41.67,12.94,57.34,21.1,39.7,69.43,30.22,71.83,6.65,16.27,1.74,23.29,18.8,20.52,35.94-7.63,47.16-69.3,46-95.79,16.18-11.66-13.12-21.05-33.05-29.72-61.31-6.12-19.95-9.63-41.76-9.63-64.6,0-95.18,53.13-172.34,118.66-172.34"/>
      <path class="cls-3" d="M434.65,228.51c-11.33-23.31-38.07-41.65-83.45-41.65-31.55,0-60.2,18.7-81.01,48.93-21.06,30.59-34.09,72.92-34.09,119.74,0,11.02.83,21.79,2.38,32.22,1.61,10.82,4.01,21.29,7.08,31.28,4.29,13.98,8.74,25.86,13.53,35.81,4.74,9.85,9.82,17.84,15.41,24.13,9.03,10.16,22.44,16.8,36.26,19.03,7.6,1.23,15.31,1.11,22.46-.51,7.01-1.58,13.44-4.61,18.62-9.21,6.17-5.48,10.65-13.27,12.32-23.63.12-.72.22-1.45.29-2.15v-.11c.78-7.17-.32-14.14-3.23-19.52-2.44-4.51-6.22-7.91-11.29-9.32-1.28,4.37-3.9,8.21-7.5,11.31-4.87,4.21-11.58,7.09-19.05,8.11-7.34,1.01-15.46.24-23.34-2.81-10.57-4.1-20.7-12.28-27.85-25.73h0s-.02-.04-.02-.04c-4.24-8.22-7.62-17.56-9.92-27.66l-.04-.15c-2.21-9.79-3.41-20.31-3.41-31.24,0-19.64,4.85-42.07,14.79-60.12,8.5-15.43,20.74-27.71,36.88-32.5,13.87-4.11,26.32-3.57,36.17.1,7.13,2.66,12.92,6.96,16.94,12.35,4.09,5.48,6.34,12.05,6.33,19.14-.02,6.34-1.85,13.06-5.83,19.72,31.03,2.75,53.94-10.83,66.36-30.4,6.1-9.61,9.68-20.67,10.47-31.94.79-11.27-1.21-22.73-6.28-33.17M351.2,179.52c48.52,0,77.36,20.14,89.8,45.73,5.67,11.67,7.91,24.44,7.04,36.96-.87,12.51-4.85,24.78-11.61,35.44-14.58,22.98-42.03,38.53-79.16,32.95-1.95-.29-3.3-2.14-3.02-4.15.11-.77.44-1.45.92-1.98,5.27-6.88,7.66-13.82,7.68-20.16.01-5.42-1.71-10.46-4.85-14.66-3.21-4.3-7.9-7.76-13.74-9.94-8.52-3.17-19.44-3.6-31.8.07-14.16,4.2-25.02,15.19-32.65,29.06-9.31,16.89-13.84,37.99-13.84,56.5,0,10.39,1.13,20.35,3.22,29.58l.03.14c2.15,9.49,5.3,18.22,9.24,25.86h0c6.25,11.75,15.01,18.87,24.12,22.39,6.73,2.61,13.66,3.27,19.91,2.41,6.11-.84,11.53-3.13,15.4-6.48,3.23-2.8,5.34-6.32,5.75-10.3.2-2.01,1.95-3.48,3.9-3.27.44.05.93.11,1.46.2,8.49,1.37,14.66,6.44,18.46,13.44,3.64,6.72,5.03,15.24,4.1,23.88v.11c-.11.86-.22,1.71-.36,2.56-1.97,12.18-7.31,21.41-14.69,27.96-6.14,5.46-13.65,9.02-21.76,10.85-7.97,1.8-16.57,1.93-25.05.56-15.32-2.48-30.27-9.91-40.41-21.33-6.07-6.83-11.52-15.37-16.55-25.82-4.98-10.35-9.57-22.57-13.95-36.85-3.17-10.34-5.66-21.18-7.33-32.4-1.61-10.79-2.46-21.93-2.46-33.31,0-48.36,13.54-92.2,35.42-123.98,22.13-32.14,52.81-52.03,86.8-52.03"/>
      <path class="cls-3" d="M240.96,320.3c-7.28,25.82-6.33,53.9.1,79.3,29.56,116.77,126.25,93.82,109.03,32.37,11.25,58.12-75.81,75.47-103.41-33.58-6.24-24.64-7.17-51.83-.14-76.76,8.91-41.18,50.18-98.46,101.03-93.24,51.77,6.06,61.66,59.71,29.33,90.35,40.87-27.94,25.89-98.89-38.91-96.21-45.06,1.86-85.8,48.49-97.03,97.77"/>
      <path class="cls-1" d="M97.02,183.19c-135.21,0-111.52,159.53-6.57,143.77-23.48-30.26,3.98-63.27,46.29-50.72,33.24,9.87,49.09,54.03,49.09,89.09,0,21.72-4.85,41.67-12.94,57.34-21.1,39.7-69.43,30.22-71.83,6.65-16.27,1.74-23.29,18.8-20.51,35.94,7.63,47.16,69.3,46,95.79,16.18,11.66-13.12,21.05-33.05,29.72-61.31,6.12-19.95,9.62-41.76,9.62-64.6,0-95.18-53.13-172.34-118.66-172.34"/>
      <path class="cls-3" d="M7.22,225.24c12.44-25.59,41.28-45.72,89.8-45.72,33.99,0,64.67,19.88,86.8,52.02,21.89,31.79,35.42,75.63,35.42,123.99,0,11.38-.85,22.52-2.46,33.31-1.67,11.23-4.15,22.06-7.33,32.4-4.38,14.28-8.97,26.49-13.95,36.85-5.03,10.45-10.48,19-16.55,25.83-10.14,11.41-25.09,18.85-40.41,21.32-8.48,1.37-17.08,1.24-25.05-.56-8.12-1.83-15.62-5.39-21.76-10.85-7.38-6.56-12.72-15.79-14.69-27.96-.14-.85-.25-1.7-.35-2.56v-.11c-.94-8.64.45-17.16,4.09-23.88,3.79-7.01,9.97-12.07,18.45-13.44.53-.09,1.02-.16,1.46-.2,1.95-.21,3.7,1.26,3.9,3.27.4,3.97,2.51,7.5,5.75,10.3,3.87,3.34,9.29,5.64,15.4,6.48,6.25.86,13.18.19,19.91-2.41,9.11-3.53,17.87-10.64,24.12-22.4h0c3.94-7.64,7.09-16.36,9.24-25.86l.03-.13c2.08-9.23,3.21-19.19,3.21-29.58,0-18.51-4.53-39.61-13.84-56.5-7.64-13.87-18.49-24.86-32.65-29.06-12.36-3.66-23.28-3.24-31.79-.07-5.84,2.18-10.53,5.64-13.74,9.94-3.13,4.2-4.86,9.24-4.85,14.66.02,6.34,2.4,13.28,7.68,20.16.48.53.81,1.21.92,1.98.28,2-1.08,3.86-3.02,4.15-37.12,5.57-64.58-9.97-79.16-32.96-6.76-10.66-10.74-22.93-11.61-35.44-.87-12.51,1.37-25.29,7.04-36.96M97.02,186.86c-45.38,0-72.12,18.34-83.45,41.65-5.07,10.44-7.07,21.9-6.29,33.17.79,11.27,4.37,22.32,10.47,31.94,12.42,19.57,35.33,33.15,66.36,30.4-3.98-6.66-5.81-13.38-5.83-19.72-.02-7.09,2.23-13.66,6.33-19.14,4.02-5.38,9.81-9.69,16.94-12.35,9.85-3.67,22.3-4.21,36.17-.1,16.15,4.79,28.38,17.07,36.88,32.5,9.95,18.05,14.79,40.48,14.79,60.12,0,10.93-1.2,21.45-3.41,31.24l-.04.15c-2.3,10.11-5.67,19.44-9.92,27.66l-.02.04h0c-7.15,13.45-17.28,21.64-27.85,25.73-7.87,3.05-16,3.82-23.34,2.82-7.47-1.03-14.17-3.9-19.05-8.11-3.6-3.11-6.22-6.94-7.5-11.32-5.07,1.41-8.84,4.81-11.29,9.32-2.91,5.38-4.01,12.34-3.24,19.52v.11c.09.71.18,1.43.3,2.15,1.67,10.35,6.15,18.15,12.32,23.63,5.18,4.61,11.61,7.63,18.62,9.21,7.15,1.62,14.86,1.74,22.47.5,13.81-2.23,27.23-8.87,36.25-19.03,5.59-6.29,10.67-14.28,15.41-24.14,4.79-9.95,9.24-21.84,13.53-35.81,3.07-10,5.46-20.46,7.08-31.28,1.55-10.43,2.38-21.2,2.38-32.22,0-46.82-13.03-89.15-34.09-119.74-20.81-30.23-49.46-48.93-81.01-48.93"/>
      <path class="cls-3" d="M207.25,320.3c7.28,25.82,6.33,53.9-.1,79.3-29.56,116.77-126.25,93.82-109.03,32.37-11.25,58.12,75.81,75.47,103.41-33.58,6.24-24.64,7.17-51.83.14-76.76-8.91-41.18-50.18-98.46-101.03-93.24-51.77,6.06-61.66,59.71-29.33,90.35-40.87-27.94-25.89-98.89,38.91-96.21,45.06,1.86,85.8,48.49,97.02,97.77"/>
      <path class="cls-3" d="M141.32,426.12c9.5-10.62,15.61-14.71,29.86-16.66,16.26-1.76,32.63.42,48.81,1.96,24.38,2.22,42.58,3.19,66.89-2.14,14.15-3.6,24.36-8.02,36.59-15.94,13.51-9.3,22.33-20.77,32.08-33.79-16.9-11.88-33.79-23.76-50.69-35.63-5,6.67-9.52,11.6-16.45,16.36-5.51,3.58-9.98,5.46-16.37,7.08-15.52,3.4-30.3,2.06-45.97.63-22.31-2.13-40.13-1.73-62.77.72-13.47,1.85-23.52,4.65-35.79,10.53-13.64,7.02-22.67,14.31-32.83,25.65l46.63,41.22Z"/>
      <path class="cls-2" d="M119.35,401.17c6.79-7.05,12.67-11.62,21.44-16.12,9.01-4.31,16.36-6.29,26.24-7.64,19.65-2.13,36.72-.02,56.18,1.84,19.9,1.81,36.06.54,55.85-3.8,10.05-2.56,17.24-5.64,25.92-11.27,9.04-6.21,15.08-12.25,21.84-20.79l-21.01-15.1c-4.87,6.15-8.96,10.29-15.47,14.77-5.88,3.81-10.67,5.84-17.48,7.57-16.04,3.52-30.94,2.19-47.12.71-21.98-2.1-39.7-1.7-62.01.71-13.06,1.79-22.79,4.49-34.68,10.19-11.75,6.03-19.76,12.17-28.86,21.62,6.39,5.77,12.77,11.54,19.16,17.31"/>
      <path class="cls-5" d="M141.03,420.76c4.14-4.31,7.68-7.14,13.03-9.88,5.7-2.73,10.43-3.9,16.69-4.76,16.53-1.79,33.13.38,49.58,1.95,23.93,2.18,41.89,3.17,65.74-2.06,13.72-3.49,23.62-7.77,35.47-15.46,11.88-8.15,20.64-18.82,29.53-30.03l-21.51-15.09c-7.01,8.85-13.28,15.11-22.65,21.54-9.06,5.87-16.55,9.08-27.03,11.75-20.28,4.45-36.62,5.74-57,3.88-19.12-1.82-36.12-3.94-55.41-1.85-9.47,1.3-16.5,3.18-25.13,7.31-8.37,4.29-13.98,8.66-20.46,15.39,6.39,5.77,12.77,11.54,19.16,17.31"/>
      <path class="cls-3" d="M214.47,456.24l8.63,1.26-4.59,22.87c6.8,4.29,14.95,3.23,24.39,1.44l6.93-21.72c4.15-2.25,6.73-2.6,11.92-1.38,1.86,11.88-.18,21.77-2.42,35.53-1.89,11.38-3.81,20.54-4.5,32.4l-1.27,3.41-3.56,3.02c-3.23-.77-5.55.71-8.17-1.25-4.49-5.76-2.71-11.5-.99-19.48l2.27-13.75-1.21-5.35-24.47,1.3-4.73,15.94c-2.17.36-3-.98-4.47-.83-2.95-.03-4.09-.39-6.31-1.97-2.6-9.98.42-17.94,2.28-29.34.8-7.65,3.26-12.24,4.63-20.65,2.02-.75,3.34-1.06,5.63-1.44"/>
      <path class="cls-4" d="M214.47,456.24l8.63,1.26-4.59,22.87c6.8,4.29,14.95,3.23,24.39,1.44l6.93-21.72c4.15-2.25,6.73-2.6,11.92-1.38,1.86,11.88-.18,21.77-2.42,35.53-1.89,11.38-3.81,20.54-4.5,32.4l-1.27,3.41-3.56,3.02c-3.23-.77-5.55.71-8.17-1.25-4.49-5.76-2.71-11.5-.99-19.48l2.27-13.75-1.21-5.35-24.47,1.3-4.73,15.94c-2.17.36-3-.98-4.47-.83-2.95-.03-4.09-.39-6.31-1.97-2.6-9.98.42-17.94,2.28-29.34.8-7.65,3.26-12.24,4.63-20.65,2.02-.75,3.34-1.06,5.63-1.44"/>
      <path class="cls-3" d="M289.14,457.91c8.23,3.49,16.54,1.3,26.49,1.85,7.53.08,14.42,1.28,17.87,8.57,1.24,3.08,1.46,5.18.82,7.67-.07,2.93-1.27,7.02-2.8,9.23-4.53,4.82-11.3,7.83-19.77,10.77-1.85,1.07-2.79,1.83-2.75,4.11,2.97,2.35,4.68,4.64,7.11,7.76l5.68,6.2c1.19,1.56,1.77,1.91,4.04,3.46l6.02,4.27c6.69,5.03,16.24,7.87,26.55,8.72l-1.11,1.94c-12.14,2.52-23.62,3.54-34.13-1.17-12.82-6.29-19.98-15.95-28.57-25.21l-2.22,1.14-7.02,19.42c-3.23.66-5.69.5-9.56.56-1.22.08-2.17-.13-3.33-1.13,1.69-22.91,7.77-42.28,11.67-65.93l5-2.23ZM298.91,469.87c-2.42,6.46-3.19,10.84-4.15,17.53,7.62,2.03,17.2,2.51,23.14-5.83.92-3.34.32-5.87-1.46-8.82l-17.53-2.88Z"/>
      <path class="cls-4" d="M289.14,457.91c8.23,3.49,16.54,1.3,26.49,1.85,7.53.08,14.42,1.28,17.87,8.57,1.24,3.08,1.46,5.18.82,7.67-.07,2.93-1.27,7.02-2.8,9.23-4.53,4.82-11.3,7.83-19.77,10.77-1.85,1.07-2.79,1.83-2.75,4.11,2.97,2.35,4.68,4.64,7.11,7.76l5.68,6.2c1.19,1.56,1.77,1.91,4.04,3.46l6.02,4.27c6.69,5.03,16.24,7.87,26.55,8.72l-1.11,1.94c-12.14,2.52-23.62,3.54-34.13-1.17-12.82-6.29-19.98-15.95-28.57-25.21l-2.22,1.14-7.02,19.42c-3.23.66-5.69.5-9.56.56-1.22.08-2.17-.13-3.33-1.13,1.69-22.91,7.77-42.28,11.67-65.93l5-2.23ZM298.91,469.87c-2.42,6.46-3.19,10.84-4.15,17.53,7.62,2.03,17.2,2.51,23.14-5.83.92-3.34.32-5.87-1.46-8.82l-17.53-2.88Z"/>
      <path class="cls-3" d="M167.47,463.7l21.37-.14c3.74,2.72,4.48,5.77,1.11,11.09-3.28,4.58-7.22,8.34-12.07,12.11l-9.53,7.15c-6.59,4.52-13.61,6.34-18.21,13.92,19.44,4.05,39.64,3.51,56.39,13.64,2.71,1.86,3.74,3.89,4.46,6.17-.87,1.6-5.92,1.79-10.31,1.43l-17.01-.98c-13.52-1.69-24.01-10.93-37.02-6.14-6.36,2.36-19.27,4.72-28.49,4.62-4.03-.25-9.86,1.44-11.69-2.84-.45-.85-.77-1.45-.58-2.4-.1-.8.31-1.4.87-2.29,5.76-4.05,10.39-9.32,18.69-13.82,1.83-1.74,4.13-2.23,7.15-5.25,10.06-7.5,17.96-12.39,29.62-19.51l.11-.77c-.76-.33-1.26-.5-1.97-.79-12.42.08-28.53-1.59-33.18-3.08-3.3-4.22-5.88-9.23,1.8-12.57l38.49.44Z"/>
      <path class="cls-4" d="M167.47,463.7l21.37-.14c3.74,2.72,4.48,5.77,1.11,11.09-3.28,4.58-7.22,8.34-12.07,12.11l-9.53,7.15c-6.59,4.52-13.61,6.34-18.21,13.92,19.44,4.05,39.64,3.51,56.39,13.64,2.71,1.86,3.74,3.89,4.46,6.17-.87,1.6-5.92,1.79-10.31,1.43l-17.01-.98c-13.52-1.69-24.01-10.93-37.02-6.14-6.36,2.36-19.27,4.72-28.49,4.62-4.03-.25-9.86,1.44-11.69-2.84-.45-.85-.77-1.45-.58-2.4-.1-.8.31-1.4.87-2.29,5.76-4.05,10.39-9.32,18.69-13.82,1.83-1.74,4.13-2.23,7.15-5.25,10.06-7.5,17.96-12.39,29.62-19.51l.11-.77c-.76-.33-1.26-.5-1.97-.79-12.42.08-28.53-1.59-33.18-3.08-3.3-4.22-5.88-9.23,1.8-12.57l38.49.44Z"/>
    </g>
  </g>
</svg>